<?xml version="1.0" standalone="no"?>
<!DOCTYPE svg PUBLIC "-//W3C//DTD SVG 20010904//EN"
 "http://www.w3.org/TR/2001/REC-SVG-20010904/DTD/svg10.dtd">
<svg version="1.0" xmlns="http://www.w3.org/2000/svg"
 width="256.000000pt" height="256.000000pt" viewBox="0 0 256.000000 256.000000"
 preserveAspectRatio="xMidYMid meet">
<metadata>
Created by potrace 1.11, written by Peter Selinger 2001-2013
</metadata>
<g transform="translate(0.000000,256.000000) scale(0.100000,-0.100000)"
fill="#000000" stroke="none">
<path d="M1044 2355 c-233 -53 -428 -172 -580 -354 -66 -78 -140 -203 -170
-286 -10 -27 -22 -53 -27 -56 -5 -3 -8 -9 -7 -13 1 -3 -1 -19 -4 -34 -4 -15
-9 -37 -11 -49 -3 -13 -7 -33 -10 -45 -12 -54 -23 -276 -15 -298 1 -3 4 -21 5
-40 2 -19 6 -44 8 -55 2 -11 -1 -23 -7 -27 -7 -5 -4 -8 8 -8 16 0 17 -2 5 -17
-10 -11 -10 -14 -1 -9 6 4 12 2 12 -3 0 -6 -5 -11 -11 -11 -6 0 -1 -9 12 -20
13 -10 19 -19 13 -20 -5 0 -16 6 -24 13 -7 6 -2 -3 13 -21 16 -20 24 -39 20
-49 -4 -10 -2 -14 4 -10 11 7 25 -28 15 -38 -11 -11 -8 -42 4 -42 9 0 10 5 3
19 -6 12 -6 18 1 18 9 0 15 -21 11 -42 0 -5 4 -8 9 -8 6 0 10 -5 10 -11 0 -5
-6 -7 -12 -3 -10 6 -10 5 -1 -8 7 -8 10 -18 6 -21 -8 -8 26 -47 40 -47 6 0 3
6 -8 13 -15 12 -16 15 -4 22 8 5 11 5 7 0 -5 -5 1 -15 12 -22 23 -16 18 -35
-8 -27 -9 3 -1 -4 19 -16 20 -13 47 -40 60 -60 13 -21 27 -36 31 -33 4 2 5 -3
2 -11 -3 -9 -2 -16 4 -16 5 0 24 -12 41 -27 l31 -27 -22 -23 c-23 -25 -16 -32
8 -8 9 8 23 15 32 14 12 0 11 -3 -5 -9 -23 -9 -22 -40 1 -40 6 -1 0 -10 -14
-22 -23 -19 -23 -20 -3 -14 15 5 25 2 32 -11 6 -10 11 -13 11 -6 0 6 -5 15
-10 18 -6 3 -10 11 -10 18 0 6 10 2 22 -10 17 -18 19 -25 9 -37 -9 -10 -9 -16
-1 -21 6 -4 14 -4 17 -1 4 3 1 6 -7 6 -10 0 -10 3 0 15 6 8 9 19 5 26 -5 8 -1
9 16 4 21 -7 22 -6 10 9 -8 9 -11 19 -7 23 3 3 6 2 6 -4 0 -6 25 -26 56 -44
31 -19 66 -43 78 -54 11 -11 31 -20 43 -21 12 0 29 -7 38 -14 8 -7 15 -9 15
-5 0 4 6 2 13 -4 8 -6 18 -7 22 -3 5 4 5 2 1 -5 -3 -6 -2 -14 4 -18 5 -3 10
-1 10 6 0 7 7 4 15 -7 8 -11 15 -14 15 -6 0 6 5 12 10 12 6 0 9 -5 8 -11 -2
-6 3 -14 11 -17 8 -2 11 0 8 5 -3 5 3 9 13 9 10 0 16 -4 14 -8 -5 -8 4 -10 44
-11 12 0 20 -2 17 -5 -2 -3 2 -10 11 -16 13 -10 13 -12 -5 -12 -11 0 -19 4
-18 9 1 5 -4 12 -11 14 -11 4 -12 1 -3 -15 7 -14 8 -23 1 -27 -5 -3 -11 -1
-11 4 -1 6 -2 15 -3 20 0 5 -5 13 -10 18 -5 5 -6 2 -2 -7 4 -8 0 -6 -9 5 -13
16 -17 17 -24 6 -6 -9 -11 -10 -15 -2 -4 6 -12 8 -18 5 -6 -4 -8 -2 -4 4 5 9
-13 10 -34 2 -3 -1 -8 -2 -12 -1 -5 0 -8 -3 -8 -9 0 -5 6 -10 14 -10 8 0 16
-5 18 -12 2 -6 15 -13 29 -15 19 -2 21 -1 9 7 -8 5 -13 10 -10 11 3 0 16 2 29
5 19 3 21 2 12 -9 -11 -14 -5 -27 12 -27 5 0 6 8 3 17 -5 16 -4 15 9 -1 8 -10
12 -23 9 -27 -3 -5 -1 -9 3 -9 5 0 14 9 21 20 7 11 17 20 23 20 8 0 7 -5 -1
-15 -9 -10 -9 -15 -1 -15 6 0 11 5 11 12 0 6 9 3 21 -8 12 -10 23 -14 27 -9
16 23 70 7 56 -16 -3 -5 0 -9 6 -9 7 0 10 7 7 14 -4 10 -1 13 8 9 8 -3 13 -9
10 -14 -3 -4 5 -6 17 -3 66 14 70 15 62 3 -5 -8 -3 -9 6 -4 10 6 10 11 -3 20
-9 7 -14 15 -10 18 9 10 33 -13 33 -32 1 -11 4 -10 13 7 13 23 13 23 31 3 10
-11 15 -25 11 -33 -6 -10 -5 -10 4 -2 12 11 5 44 -10 44 -4 0 -6 8 -3 18 4 10
2 13 -3 7 -11 -13 -54 -15 -46 -2 4 6 1 7 -7 2 -9 -6 -11 -4 -5 5 6 10 4 11
-6 4 -21 -13 -59 -13 -52 0 4 6 0 5 -9 -1 -8 -7 -19 -9 -23 -5 -5 4 -4 0 0 -8
6 -11 3 -10 -12 2 -26 23 -41 23 -16 0 10 -9 14 -14 8 -10 -7 4 -15 5 -18 1
-4 -3 -7 -2 -7 4 0 5 -7 10 -15 10 -8 0 -11 -5 -8 -11 4 -6 2 -7 -3 -3 -5 5
-9 14 -9 19 0 6 -6 13 -14 16 -8 3 -11 0 -7 -6 3 -5 -1 -13 -10 -16 -9 -3 -12
-2 -9 5 4 5 1 17 -7 26 -11 14 -11 16 2 8 8 -5 26 -10 40 -11 14 -1 27 -3 30
-4 3 -1 13 -2 23 -1 9 1 17 -3 17 -9 0 -6 5 -8 13 -3 20 12 47 14 47 2 0 -6 5
-7 13 -2 22 14 45 13 51 -2 3 -9 12 -12 22 -8 16 6 16 7 -2 14 -16 6 -16 8 -2
8 9 1 20 -4 23 -9 3 -6 11 -10 17 -10 7 0 7 4 0 13 -9 11 -4 13 26 12 20 -1
43 3 50 8 17 14 27 1 13 -17 -12 -14 -35 -16 -47 -3 -4 4 -15 0 -25 -9 -16
-14 -17 -19 -4 -36 7 -11 11 -28 8 -37 -4 -13 -3 -13 5 -2 6 8 8 21 4 29 -4
11 -1 13 9 7 8 -5 5 1 -5 13 -11 12 -14 22 -8 22 6 0 18 -10 27 -22 l17 -23
-8 25 c-6 23 -6 24 11 10 14 -12 19 -12 22 -2 3 6 9 9 14 6 6 -3 5 -11 -2 -20
-8 -10 -8 -14 0 -14 6 0 11 5 11 11 0 8 4 8 14 0 11 -9 16 -9 22 0 4 7 3 10
-2 7 -5 -3 -15 0 -21 8 -7 7 -9 15 -4 19 5 3 12 1 16 -4 3 -6 13 -7 22 -4 10
4 14 2 10 -4 -4 -6 0 -14 8 -17 13 -4 14 -2 5 14 -11 21 -1 27 16 10 6 -6 15
-6 24 1 12 8 12 9 -4 7 -10 -2 -21 3 -24 11 -2 8 0 11 6 7 5 -3 13 1 16 10 6
15 4 15 -16 2 -13 -7 -37 -13 -55 -13 -20 1 -30 -3 -26 -9 3 -6 0 -5 -8 2 -12
11 -12 14 1 22 8 5 18 6 22 4 4 -3 8 1 8 8 0 10 2 10 9 -1 8 -12 12 -12 26 3
10 10 25 14 36 11 10 -4 19 -2 19 3 0 5 11 14 24 20 19 9 27 8 36 -4 12 -13 7
-18 -13 -15 -5 1 -6 -2 -3 -7 3 -5 -5 -8 -17 -7 -37 3 -50 -30 -16 -40 17 -6
18 -9 7 -23 -12 -15 -11 -16 5 -3 18 14 18 15 -5 33 -17 13 -19 18 -8 18 9 0
22 -6 29 -12 11 -10 13 -10 7 0 -4 6 -3 12 1 12 5 0 14 9 21 21 10 16 11 24 1
35 -7 8 -8 14 -3 12 5 -1 19 3 31 10 12 7 28 11 35 10 7 -2 12 2 11 9 -2 7 6
10 18 8 16 -3 19 0 15 12 -5 12 -3 13 6 5 14 -11 42 10 30 23 -4 4 -2 6 3 4
16 -4 65 23 59 32 -3 5 5 13 18 18 13 5 30 16 37 25 7 9 18 13 24 9 6 -4 8 0
4 11 -4 9 -3 15 1 12 5 -3 16 4 25 15 10 11 23 17 29 13 8 -5 9 -1 4 12 -4 10
-4 15 1 11 4 -4 14 6 23 24 l17 31 0 -31 c0 -18 -3 -27 -7 -21 -5 8 -9 6 -13
-5 -4 -9 -3 -13 3 -10 5 3 8 -9 6 -30 -2 -19 0 -37 5 -40 4 -3 6 3 4 15 -2 11
0 22 4 24 4 3 7 19 6 36 -1 23 2 30 12 26 8 -3 16 1 18 9 15 48 15 48 29 36
11 -10 14 -9 12 4 -1 8 -8 21 -16 28 -9 8 -11 8 -6 0 6 -12 -9 -26 -32 -29
-10 -2 -8 4 5 19 10 12 19 23 20 25 0 2 11 -2 23 -8 15 -8 20 -8 16 -1 -4 6
-2 11 4 11 6 0 8 5 4 12 -5 8 -2 9 11 4 14 -5 16 -4 6 8 -9 11 -6 18 16 35 20
15 22 19 8 14 -18 -6 -18 -5 -6 10 11 14 17 15 30 5 10 -8 9 -5 -3 10 -20 23
-32 30 -20 10 5 -7 3 -8 -6 -3 -9 6 -11 4 -5 -5 5 -8 4 -11 -3 -6 -7 4 -10 -1
-7 -14 3 -13 0 -18 -7 -14 -7 5 -8 2 -3 -6 6 -9 4 -11 -5 -5 -9 5 -11 4 -6 -3
4 -7 2 -12 -3 -12 -6 0 -10 -3 -10 -7 4 -25 -2 -36 -13 -25 -8 8 -4 20 16 47
15 19 24 35 20 35 -4 0 2 10 14 23 11 12 21 26 21 32 0 5 4 11 10 13 6 2 11
-1 11 -8 0 -6 -4 -9 -8 -6 -5 3 -9 -1 -9 -9 0 -11 4 -12 13 -4 12 10 16 51 4
44 -4 -2 -7 2 -7 10 0 8 4 15 9 15 4 0 8 9 8 19 0 11 5 23 10 26 6 4 7 11 4
17 -4 7 -2 8 5 4 6 -4 9 -12 6 -17 -4 -5 -2 -9 3 -9 6 0 13 7 16 16 3 8 2 13
-3 10 -5 -3 -12 1 -15 10 -5 12 -2 15 11 10 10 -4 14 -4 10 0 -4 4 -1 14 6 23
11 14 10 15 -7 1 -18 -14 -19 -14 -11 5 4 11 8 28 9 38 0 9 7 17 16 18 10 0
11 2 3 6 -7 2 -13 9 -13 14 0 6 4 8 8 5 5 -3 9 1 9 9 0 8 -4 15 -8 15 -4 0 -5
9 -2 20 3 11 10 17 17 13 7 -4 6 -1 -1 9 -7 8 -10 18 -7 21 7 7 7 225 0 272
-11 69 -18 102 -28 135 -6 19 -10 35 -9 35 1 0 -12 34 -29 75 -60 145 -127
247 -239 359 -142 144 -307 236 -510 285 -134 33 -324 33 -467 1z m220 -757
c8 14 46 11 46 -3 0 -5 5 -3 10 5 7 11 10 11 10 2 0 -7 4 -11 9 -8 5 3 11 -1
15 -9 3 -8 11 -15 17 -15 8 0 7 6 -2 18 -12 15 -12 16 2 5 9 -7 20 -9 24 -5 5
4 5 1 1 -5 -5 -8 -1 -13 10 -13 20 0 11 -13 -11 -16 -9 -1 -12 2 -9 8 4 7 2 8
-4 4 -7 -4 -17 -17 -22 -29 -11 -22 -11 -22 5 -2 9 11 17 20 18 20 1 0 17 -10
35 -23 17 -13 32 -21 32 -18 0 13 -6 21 -13 18 -5 -1 -6 2 -2 8 4 6 -1 7 -12
4 -14 -5 -15 -4 -4 4 18 13 39 5 46 -19 4 -10 12 -18 18 -16 7 1 11 -4 10 -10
-2 -7 2 -13 9 -13 6 0 8 -3 5 -7 -4 -3 2 -13 13 -20 11 -8 18 -18 15 -22 -2
-5 2 -17 9 -27 11 -15 12 -22 3 -33 -9 -12 -9 -13 1 -7 9 6 11 1 8 -18 -3 -15
0 -26 6 -26 7 0 6 -5 -1 -14 -7 -8 -8 -17 -3 -20 20 -12 -30 -123 -78 -174
-105 -110 -288 -111 -400 -2 -51 50 -98 149 -76 162 8 6 8 8 -1 8 -7 0 -13 7
-13 16 0 8 4 13 8 10 5 -3 9 1 9 9 0 8 -4 12 -9 9 -17 -11 -7 9 14 27 11 11
17 19 12 19 -6 0 -16 -6 -23 -12 -11 -11 -12 -10 -5 2 5 8 10 24 11 34 2 11 8
25 13 31 5 7 8 14 5 17 -3 3 17 29 45 59 27 30 50 50 50 46 0 -5 12 1 26 12
15 11 30 18 35 15 5 -3 9 -1 9 5 0 5 9 8 20 6 11 -2 22 1 26 7 4 7 9 6 14 -2
5 -8 10 -9 14 -2z m-914 -775 c0 -5 -5 -15 -10 -23 -7 -12 -9 -10 -7 8 1 19
17 33 17 15z m1770 -189 c0 -8 -4 -12 -10 -9 -5 3 -10 10 -10 16 0 5 5 9 10 9
6 0 10 -7 10 -16z m-1511 -139 c10 -9 12 -18 6 -24 -6 -6 -21 1 -39 19 -28 28
-28 29 -5 25 12 -3 30 -11 38 -20z m357 -217 c4 4 2 -1 -5 -11 -11 -14 -16
-15 -22 -5 -13 20 -10 32 4 19 8 -6 18 -7 23 -3z m540 -20 c4 -7 4 -10 -1 -6
-4 4 -15 2 -24 -5 -14 -11 -14 -10 -2 6 16 20 18 21 27 5z m64 7 c0 -7 -30
-13 -34 -7 -3 4 4 9 15 9 10 1 19 0 19 -2z m-430 -29 c0 -11 -19 -15 -25 -6
-3 5 1 10 9 10 9 0 16 -2 16 -4z m147 -13 c0 -7 -2 -11 -5 -8 -3 2 -13 0 -23
-5 -18 -10 -35 2 -25 18 8 13 53 9 53 -5z"/>
<path d="M1266 1592 c-3 -5 -17 -8 -32 -6 -20 2 -24 -1 -20 -13 5 -12 3 -13
-6 -6 -17 14 -45 8 -69 -13 -10 -9 -19 -13 -19 -9 0 5 -16 -8 -35 -29 -33 -37
-38 -56 -12 -56 8 0 8 3 -2 9 -9 6 -10 11 -2 15 6 4 16 4 23 0 6 -4 8 -3 5 4
-9 13 2 44 14 37 4 -3 5 -13 2 -23 -4 -13 -2 -13 10 3 8 11 13 23 11 27 -2 4
0 9 6 13 5 3 10 1 10 -5 0 -6 5 -8 11 -4 8 4 7 9 -2 15 -10 6 -10 9 -2 9 17 0
26 -19 16 -33 -4 -7 0 -4 11 8 10 11 25 19 32 17 8 -2 14 4 14 13 0 8 4 15 9
15 14 0 7 -30 -10 -40 -10 -7 -8 -9 8 -7 12 0 20 3 18 5 -5 5 21 32 30 32 3 0
4 -4 1 -9 -3 -5 2 -15 12 -22 15 -12 16 -12 5 2 -13 16 -8 29 9 29 5 0 6 -6 2
-12 -5 -9 -2 -9 9 1 20 16 23 1 5 -18 -11 -10 -10 -11 5 -6 16 7 25 44 10 46
-15 1 -38 7 -54 14 -10 3 -20 2 -23 -3z m30 -14 c4 -7 3 -8 -5 -4 -6 4 -20 2
-29 -6 -15 -12 -16 -11 -3 5 16 20 27 22 37 5z m-96 -14 c0 -8 -19 -13 -24 -6
-3 5 1 9 9 9 8 0 15 -2 15 -3z"/>
<path d="M1273 1525 c0 -8 4 -12 9 -9 5 3 6 10 3 15 -9 13 -12 11 -12 -6z"/>
<path d="M1375 1520 c-4 -6 1 -7 11 -3 13 5 15 3 9 -7 -5 -9 -4 -11 4 -6 6 4
9 12 6 17 -8 12 -22 12 -30 -1z"/>
<path d="M1193 1505 c0 -8 4 -12 9 -9 5 3 6 10 3 15 -9 13 -12 11 -12 -6z"/>
<path d="M1135 1501 c-3 -5 -2 -12 3 -15 5 -3 9 1 9 9 0 17 -3 19 -12 6z"/>
<path d="M1415 1500 c-3 -5 -1 -10 4 -10 6 0 11 5 11 10 0 6 -2 10 -4 10 -3 0
-8 -4 -11 -10z"/>
<path d="M1453 1497 c-3 -6 -1 -7 5 -3 7 4 12 1 12 -8 0 -9 4 -16 8 -16 4 0 8
8 8 18 0 20 -23 26 -33 9z"/>
<path d="M1090 1459 c0 -5 5 -7 10 -4 6 3 10 8 10 11 0 2 -4 4 -10 4 -5 0 -10
-5 -10 -11z"/>
<path d="M1034 1445 c3 -23 12 -26 13 -5 1 11 -2 20 -7 20 -4 0 -7 -7 -6 -15z"/>
<path d="M1497 1449 c7 -7 15 -10 18 -7 3 3 -2 9 -12 12 -14 6 -15 5 -6 -5z"/>
<path d="M1021 1404 c0 -11 3 -14 6 -6 3 7 2 16 -1 19 -3 4 -6 -2 -5 -13z"/>
<path d="M596 487 c3 -10 9 -15 12 -12 3 3 0 11 -7 18 -10 9 -11 8 -5 -6z"/>
<path d="M2272 935 c-1 -8 -2 -23 -2 -32 1 -57 1 -58 10 -44 4 8 6 21 2 29 -4
11 -2 13 9 7 12 -8 12 -6 1 8 -8 9 -11 21 -8 26 4 5 3 12 -2 15 -5 3 -9 -1
-10 -9z"/>
<path d="M270 920 c0 -5 5 -10 11 -10 5 0 7 5 4 10 -3 6 -8 10 -11 10 -2 0 -4
-4 -4 -10z"/>
<path d="M285 840 c3 -5 8 -10 11 -10 2 0 4 5 4 10 0 6 -5 10 -11 10 -5 0 -7
-4 -4 -10z"/>
<path d="M297 805 c-4 -8 -3 -16 1 -19 4 -3 9 4 9 15 2 23 -3 25 -10 4z"/>
<path d="M314 759 c-4 -7 -3 -9 4 -5 5 3 13 0 15 -6 4 -9 6 -10 6 -1 1 17 -16
25 -25 12z"/>
<path d="M335 720 c-3 -6 1 -7 9 -4 18 7 21 14 7 14 -6 0 -13 -4 -16 -10z"/>
<path d="M384 708 c19 -11 19 -11 0 -25 -19 -14 -19 -14 0 -11 10 2 21 -3 24
-11 3 -9 0 -11 -8 -6 -8 5 -11 4 -6 -3 4 -6 13 -9 22 -5 8 3 14 2 13 -3 -4
-22 3 -32 23 -37 18 -5 19 -8 8 -21 -8 -11 -9 -16 -1 -17 6 -1 16 -3 21 -4 6
-1 13 -3 18 -4 4 -1 0 -6 -8 -11 -11 -7 -11 -10 -2 -10 8 0 10 -5 6 -12 -4 -6
4 -3 19 8 l26 19 -27 20 c-38 28 -88 85 -76 85 4 0 -5 14 -21 30 -16 17 -34
30 -39 30 -6 0 -2 -6 8 -12z m37 -35 c13 -16 12 -17 -3 -4 -17 13 -22 21 -14
21 2 0 10 -8 17 -17z m83 -102 c14 -15 15 -21 4 -27 -7 -4 -10 -4 -6 1 10 10
-11 37 -23 29 -5 -3 -9 0 -9 5 0 17 15 13 34 -8z"/>
<path d="M357 699 c7 -7 15 -10 18 -7 3 3 -2 9 -12 12 -14 6 -15 5 -6 -5z"/>
<path d="M2190 690 c-6 -11 -8 -20 -6 -20 3 0 10 9 16 20 6 11 8 20 6 20 -3 0
-10 -9 -16 -20z"/>
<path d="M384 602 c4 -3 14 -7 22 -8 9 -1 13 0 10 4 -4 3 -14 7 -22 8 -9 1
-13 0 -10 -4z"/>
<path d="M2020 552 c-8 -9 -14 -22 -12 -28 1 -7 -5 -11 -15 -9 -10 1 -26 -4
-35 -13 -15 -12 -16 -18 -5 -30 10 -13 9 -14 -11 -3 -13 7 -26 10 -30 7 -3 -3
1 -6 9 -6 8 -1 1 -8 -16 -17 -16 -9 -45 -29 -63 -45 -18 -15 -37 -26 -42 -23
-5 3 -15 -3 -22 -15 -7 -11 -16 -20 -21 -20 -4 0 -5 5 -2 10 3 6 1 10 -4 10
-6 0 -11 -5 -11 -11 0 -5 -4 -8 -9 -4 -5 3 -12 1 -15 -4 -4 -5 -1 -13 4 -16 8
-5 7 -12 -3 -23 -24 -29 -28 -40 -15 -48 7 -4 10 -4 6 1 -4 4 -3 16 3 27 8 15
13 17 25 7 10 -8 14 -8 14 0 0 6 -5 11 -11 11 -5 0 -7 5 -3 11 4 8 13 4 25
-12 18 -24 18 -24 12 -1 -3 13 -1 22 6 22 6 0 11 -6 11 -12 0 -9 3 -8 9 2 12
18 5 31 -14 23 -11 -4 -13 -1 -9 11 7 17 24 17 39 0 5 -7 21 -15 35 -18 23 -5
23 -4 -2 6 -31 13 -35 23 -13 32 8 3 19 -2 24 -12 6 -9 11 -12 11 -6 0 5 -6
16 -12 23 -11 10 -8 11 15 7 16 -3 25 -1 21 5 -9 14 15 39 32 32 7 -3 11 -10
7 -16 -3 -6 -1 -7 5 -3 6 3 9 15 7 26 -3 13 2 20 12 20 9 0 13 6 10 15 -4 8
-2 17 3 20 6 4 10 -2 10 -12 0 -14 3 -13 13 6 7 14 22 25 34 26 13 1 26 5 30
10 5 4 -2 4 -14 1 -14 -5 -23 -3 -23 3 0 10 12 15 30 13 3 0 7 9 7 20 2 20 1
20 -13 2 -12 -17 -13 -17 -8 -1 8 21 3 21 -16 -1z m-26 -54 c-4 -5 -9 -7 -12
-4 -3 3 -12 0 -21 -7 -14 -10 -14 -10 -4 4 13 16 46 23 37 7z m-57 -53 c0 -9
-6 -14 -13 -11 -7 3 -22 -7 -34 -21 -11 -14 -20 -20 -20 -13 0 9 -7 7 -22 -6
-21 -17 -21 -17 1 8 13 15 28 25 32 22 5 -3 9 -1 9 4 0 5 10 14 23 20 12 6 22
11 23 11 0 1 1 -6 1 -14z m-169 -110 c3 -3 -4 -4 -16 -2 -12 2 -24 6 -28 10
-4 3 4 4 16 2 12 -2 25 -7 28 -10z"/>
<path d="M531 484 c0 -11 3 -14 6 -6 3 7 2 16 -1 19 -3 4 -6 -2 -5 -13z"/>
<path d="M2005 480 c-3 -6 1 -7 9 -4 18 7 21 14 7 14 -6 0 -13 -4 -16 -10z"/>
<path d="M2025 460 c-3 -6 1 -7 9 -4 18 7 21 14 7 14 -6 0 -13 -4 -16 -10z"/>
<path d="M643 438 c-12 -15 -13 -48 -2 -48 4 0 9 6 12 13 2 6 8 9 12 5 4 -4 3
-13 -1 -20 -11 -18 -12 -48 -2 -54 5 -3 7 0 6 8 -2 7 3 12 10 10 8 -1 11 1 9
5 -2 5 4 16 14 26 18 20 21 5 4 -23 -7 -13 -6 -13 7 -2 13 11 19 8 37 -15 12
-15 19 -21 16 -12 -10 28 27 18 44 -13 15 -26 33 -38 30 -20 -3 19 2 33 11 27
5 -3 7 -11 4 -18 -2 -7 5 -18 16 -25 16 -10 20 -10 18 0 -2 7 5 13 14 13 9 0
19 4 22 8 3 4 3 5 -1 2 -3 -3 -17 5 -30 17 -15 14 -23 17 -23 8 0 -9 -7 -6
-20 8 -11 12 -28 19 -40 17 -11 -2 -25 4 -33 15 -7 10 -19 20 -27 22 -8 2 -17
5 -20 8 -13 14 -64 50 -70 50 -4 0 -12 -6 -17 -12z m55 -21 c10 -8 9 -14 -4
-28 -20 -22 -42 -26 -25 -5 16 19 3 50 -15 35 -9 -7 -14 -8 -14 -1 0 22 28 22
58 -1z m67 -47 c13 -15 13 -17 0 -17 -8 0 -22 8 -30 17 -13 15 -13 17 0 17 8
0 22 -8 30 -17z m68 -34 c-6 -23 -9 -24 -20 -7 -10 16 -9 19 5 17 9 -2 16 -6
15 -10z m51 -37 c-3 -5 -10 -7 -15 -3 -5 3 -7 10 -3 15 3 5 10 7 15 3 5 -3 7
-10 3 -15z"/>
<path d="M1995 409 c-4 -6 -5 -12 -2 -15 2 -3 7 2 10 11 7 17 1 20 -8 4z"/>
<path d="M590 386 c0 -2 7 -7 16 -10 8 -3 12 -2 9 4 -6 10 -25 14 -25 6z"/>
<path d="M1896 358 c3 -5 10 -6 15 -3 13 9 11 12 -6 12 -8 0 -12 -4 -9 -9z"/>
<path d="M716 342 c-2 -4 -1 -14 5 -22 5 -8 9 -10 9 -5 0 6 5 3 10 -5 7 -10
10 -11 10 -2 0 7 -7 15 -15 18 -8 4 -12 10 -9 15 3 5 3 9 0 9 -3 0 -7 -4 -10
-8z"/>
<path d="M1654 324 c-18 -15 -18 -15 2 -5 12 6 25 7 29 3 5 -4 5 -1 1 6 -9 15
-8 15 -32 -4z"/>
<path d="M780 320 c0 -5 5 -10 10 -10 6 0 10 5 10 10 0 6 -4 10 -10 10 -5 0
-10 -4 -10 -10z"/>
<path d="M1815 321 c-3 -5 -2 -12 3 -15 5 -3 9 1 9 9 0 17 -3 19 -12 6z"/>
<path d="M1579 293 c-13 -17 -13 -17 6 -3 11 8 22 16 24 17 2 2 0 3 -6 3 -6 0
-17 -8 -24 -17z"/>
<path d="M755 281 c-3 -5 -2 -12 3 -15 5 -3 9 1 9 9 0 17 -3 19 -12 6z"/>
<path d="M840 276 c0 -2 7 -7 16 -10 8 -3 12 -2 9 4 -6 10 -25 14 -25 6z"/>
<path d="M861 236 c-9 -11 -9 -16 1 -22 7 -4 10 -4 6 1 -4 4 -3 14 3 22 6 7 9
13 6 13 -2 0 -10 -6 -16 -14z"/>
<path d="M910 240 c0 -5 5 -10 11 -10 5 0 7 5 4 10 -3 6 -8 10 -11 10 -2 0 -4
-4 -4 -10z"/>
<path d="M1467 207 c-3 -8 1 -14 8 -14 7 0 11 6 8 14 -6 16 -10 16 -16 0z"/>
<path d="M994 202 c4 -3 14 -7 22 -8 9 -1 13 0 10 4 -4 3 -14 7 -22 8 -9 1
-13 0 -10 -4z"/>
<path d="M1060 199 c0 -5 5 -7 10 -4 6 3 10 8 10 11 0 2 -4 4 -10 4 -5 0 -10
-5 -10 -11z"/>
<path d="M1150 200 c0 -5 7 -7 15 -4 8 4 15 8 15 10 0 2 -7 4 -15 4 -8 0 -15
-4 -15 -10z"/>
<path d="M935 191 c-3 -5 -2 -12 3 -15 5 -3 9 1 9 9 0 17 -3 19 -12 6z"/>
<path d="M1347 187 c-3 -8 0 -14 7 -14 7 0 13 6 13 14 0 17 -13 17 -20 0z"/>
<path d="M976 182 c-3 -4 4 -9 15 -9 23 -2 25 3 4 10 -8 4 -16 3 -19 -1z"/>
<path d="M1113 173 c0 -9 4 -10 14 -2 7 6 13 12 13 14 0 1 -6 2 -13 2 -8 0
-14 -6 -14 -14z"/>
<path d="M1260 186 c0 -2 9 -6 20 -9 11 -3 18 -1 14 4 -5 9 -34 13 -34 5z"/>
<path d="M1070 146 c0 -2 7 -7 16 -10 8 -3 12 -2 9 4 -6 10 -25 14 -25 6z"/>
<path d="M1435 140 c-3 -5 -1 -10 4 -10 6 0 11 5 11 10 0 6 -2 10 -4 10 -3 0
-8 -4 -11 -10z"/>
<path d="M1510 143 c0 -6 8 -17 18 -24 16 -13 16 -13 2 6 -8 11 -16 22 -17 24
-2 2 -3 0 -3 -6z"/>
</g>
</svg>
